<svg xmlns="http://www.w3.org/2000/svg" width="172.262" height="26.954"><defs><clipPath id="clip-path"><path id="사각형_70" data-name="사각형 70" fill="none" d="M0 0h172.262v26.954H0z"/></clipPath></defs><g id="그룹_17" data-name="그룹 17" clip-path="url('#clip-path')" fill="#fff"><path id="패스_1" data-name="패스 1" d="M9.942 12.23h6.3c.237 0 .475-.02.712-.039a5.622 5.622 0 0 0 2.039-.515A2.606 2.606 0 0 0 20.358 9.7a1.821 1.821 0 0 0-.713-2 4.821 4.821 0 0 0-2.592-.534h-2.671l-.554 3.377h-3.609l.758-4.643a1.7 1.7 0 0 1 .574-.95 1.463 1.463 0 0 1 .99-.4h5.442a8.3 8.3 0 0 1 4.67 1.03 2.981 2.981 0 0 1 1.327 2.513v.415c-.02.219-.039.436-.079.673a5.26 5.26 0 0 1-1.227 2.613 6.736 6.736 0 0 1-2.415 1.7A4.249 4.249 0 0 1 22.4 15a3.15 3.15 0 0 1 .476.9h5.792l2.12-13.209A2.274 2.274 0 0 0 28.432 0H4.9L3.217 10.541H.26L0 12.23h9.942Z"/><path id="패스_2" data-name="패스 2" d="M28.466 18.626h-8.95v-.02a1.928 1.928 0 0 0-.811-2.158 4.349 4.349 0 0 0-1.682-.534 8.5 8.5 0 0 0-1.01-.059h-2.83l-.91 5.541h2.829a7.4 7.4 0 0 0 1.92-.237 5.181 5.181 0 0 0 .978-.376 2.711 2.711 0 0 0 .665-.468h4.023a4.888 4.888 0 0 1-2.312 2.606 9.561 9.561 0 0 1-3.344.95 12.527 12.527 0 0 1-1.96.1H9.586a1.063 1.063 0 0 1-.851-.4 1.218 1.218 0 0 1-.257-.911l1.261-7.711H2.75L1.1 25.3a2.273 2.273 0 0 0 2.354 2.691h23.507l1.233-7.672h2.963l.26-1.689Z" transform="translate(-.073 -1.033)"/><path id="패스_3" data-name="패스 3" d="M56.377 6.486a7.714 7.714 0 0 0-4.252-.9h-4.91a1.28 1.28 0 0 0-.9.346 1.472 1.472 0 0 0-.484.829l-2.175 14.21a1.179 1.179 0 0 0 .242.829 1.066 1.066 0 0 0 .8.345h4.943c.553 0 1.106-.034 1.624-.069a8.6 8.6 0 0 0 3.146-.9 4.639 4.639 0 0 0 2.42-3.63 3.448 3.448 0 0 0-.631-2.556 3.817 3.817 0 0 0-1.935-1.348 6.257 6.257 0 0 0 2.177-1.555 4.487 4.487 0 0 0 1.071-2.352 3.076 3.076 0 0 0-1.14-3.25m-2.766 10.82a2.565 2.565 0 0 1-1.382 1.971 3.975 3.975 0 0 1-.968.345 5.952 5.952 0 0 1-1.624.208h-2.555l.761-5.012H50.4a6.755 6.755 0 0 1 .864.069 3.736 3.736 0 0 1 1.59.484 1.77 1.77 0 0 1 .761 1.935m.726-7.086a2.265 2.265 0 0 1-1.21 1.763 4.946 4.946 0 0 1-1.867.484h-3.08l.692-4.529h2.454a4.06 4.06 0 0 1 2.316.484 1.61 1.61 0 0 1 .692 1.8" transform="translate(-3.015 -.386)"/><path id="패스_4" data-name="패스 4" d="M91.33 5.588a1.224 1.224 0 0 0-.9.346 1.308 1.308 0 0 0-.484.829L87.77 20.972a1.184 1.184 0 0 0 .242.829 1.069 1.069 0 0 0 .8.345h9.749l.173-1.175a1.08 1.08 0 0 0-.242-.864.991.991 0 0 0-.761-.346h-6.538l.726-4.8h5.945a1.6 1.6 0 0 0 .9-.381 1.286 1.286 0 0 0 .484-.829l.172-1.176H92.3l.692-4.6h6.463a1.7 1.7 0 0 0 .9-.346 1.656 1.656 0 0 0 .484-.864l.173-1.176Z" transform="translate(-6.062 -.386)"/><path id="패스_5" data-name="패스 5" d="M63.883 5.934a1.7 1.7 0 0 0-.484.83l-2.143 14.208a1.036 1.036 0 0 0 .242.829.988.988 0 0 0 .761.345h2.074l2.523-16.558h-2.073a1.34 1.34 0 0 0-.9.346" transform="translate(-4.231 -.386)"/><path id="패스_6" data-name="패스 6" d="M82.846 5.587a3.313 3.313 0 0 0-1.037.1 2.905 2.905 0 0 0-.968.587l-6.81 6.5L75.1 5.587h-2.04a1.339 1.339 0 0 0-.9.346 1.7 1.7 0 0 0-.484.829l-2.14 14.209a1.036 1.036 0 0 0 .242.829.994.994 0 0 0 .761.345h2.04l1.21-7.881 4.943 7.155a1.538 1.538 0 0 0 .622.554 2.142 2.142 0 0 0 .865.172H83.4L76.969 13.5l8.47-7.917Z" transform="translate(-4.803 -.385)"/><path id="패스_7" data-name="패스 7" d="M138.891 5.924a1.634 1.634 0 0 0-1.107-.346h-2.458l-9.172 16.578h2.146a2.1 2.1 0 0 0 1.211-.381 2.963 2.963 0 0 0 .9-1.038l1.107-2.146h7.441l.451 2.146a1.876 1.876 0 0 0 .554 1.038 1.649 1.649 0 0 0 1.108.381h2.179L139.445 7a2.425 2.425 0 0 0-.554-1.073M135.6 16.134h-2.837l2.837-5.4 1.142-2.216 1.661 7.614Z" transform="translate(-8.714 -.385)"/><path id="패스_8" data-name="패스 8" d="M183.859 5.577h-2.631a3.316 3.316 0 0 0-1.037.1 2.6 2.6 0 0 0-.97.588l-6.821 6.511 1.073-7.2h-2.042a1.346 1.346 0 0 0-.9.346 1.7 1.7 0 0 0-.484.831L167.9 20.979a1.04 1.04 0 0 0 .243.83.989.989 0 0 0 .761.345h2.042l1.211-7.891 4.949 7.164a1.356 1.356 0 0 0 .623.554 2.15 2.15 0 0 0 .866.172h3.218l-6.467-8.653Z" transform="translate(-11.597 -.384)"/><path id="패스_9" data-name="패스 9" d="M163.3 5.578h-2.042l-1.937 12.736-4.429-11.525a1.828 1.828 0 0 0-.762-.968 2.577 2.577 0 0 0-1.281-.243h-2.665l-2.319 15.4a1.162 1.162 0 0 0 .208.83 1.125 1.125 0 0 0 .8.345h2.042l1.938-12.77 4.429 11.559a1.705 1.705 0 0 0 .8.9 2.505 2.505 0 0 0 1.28.311h2.631l2.352-15.4a1.033 1.033 0 0 0-.242-.831.914.914 0 0 0-.8-.346" transform="translate(-10.213 -.385)"/><path id="패스_10" data-name="패스 10" d="M123.055 6.478a7.584 7.584 0 0 0-4.223-.9h-4.95a1.2 1.2 0 0 0-.864.346 1.3 1.3 0 0 0-.485.831l-2.18 14.225a1.184 1.184 0 0 0 .243.83 1.071 1.071 0 0 0 .8.345h4.914c.588 0 1.142-.034 1.661-.069a8.6 8.6 0 0 0 3.15-.9 4.725 4.725 0 0 0 2.423-3.633 3.453 3.453 0 0 0-.624-2.562 3.817 3.817 0 0 0-1.938-1.349 5.831 5.831 0 0 0 2.146-1.557 4.523 4.523 0 0 0 1.108-2.353 3.092 3.092 0 0 0-1.177-3.254m-2.77 10.832a2.455 2.455 0 0 1-1.349 1.974 4.014 4.014 0 0 1-.97.345 6.036 6.036 0 0 1-1.661.209h-2.527l.761-5.019h2.527a6.82 6.82 0 0 1 .9.069 3.448 3.448 0 0 1 1.558.484 1.68 1.68 0 0 1 .761 1.938m.727-7.095a2.122 2.122 0 0 1-1.211 1.765 4.606 4.606 0 0 1-1.835.485h-3.079l.693-4.535H118a4.186 4.186 0 0 1 2.353.485 1.6 1.6 0 0 1 .657 1.8" transform="translate(-7.622 -.385)"/></g></svg>